<?xml version="1.0" encoding="utf-8"?>
<!-- Generator: Adobe Illustrator 24.3.0, SVG Export Plug-In . SVG Version: 6.00 Build 0)  -->
<svg version="1.1" id="Layer_1" xmlns="http://www.w3.org/2000/svg" xmlns:xlink="http://www.w3.org/1999/xlink" x="0px" y="0px"
	 viewBox="0 0 319 98" style="enable-background:new 0 0 319 98;" xml:space="preserve">
<style type="text/css">
	.st0{fill:#0068E6;}
	.st1{fill:#55EEA8;}
	.st2{fill:#FFFFFF;}
	.st3{font-family:'AerospaceRegular';}
	.st4{font-size:33.7545px;}
</style>
<g>
	<g>
		<path class="st0" d="M43.4,7.4l-33.1,33c0,0-8.1,7.7-2.4,15c3,3.2,33.9,34.6,33.9,34.6s3.6,3.7,6.6,0.6c0.2-0.1,2.7-2.1-0.4-6
			c-0.4-0.4-5.6-5.8-5.6-5.8s-3.2-3.9,0.8-8.3C48,65.9,62,52,62,52s2.2-3,0-6c0,0-2-3.7-6.9,0.2c-2.2,2.6-18.5,18.5-18.5,18.5
			s-4.7,4.1-8.7,0.1C24,60.8,16,52.5,16,52.5s-2.1-4.8,2.4-7.7c-1.9,1.9-1.6,1.6,29.9-29.8c0,0,3.2-3.4,0.5-6.2
			C48.8,8.7,47.5,6.5,43.4,7.4z"/>
		<path class="st1" d="M29.3,49.7c0,0-3.4,4.1-0.6,6.7c0,0,3.9,3.7,7.7-0.9c4.2-4.5,17.9-18.3,17.9-18.3s4.2-3.7,7.9,0
			c3.7,3.7,11.4,10.9,11.4,10.9s3.8,4,0,7.6c-2.9,3.2-18.8,19-18.8,19s-3.9,3.5-1.2,6.5c0.4,0.1,3.2,4.3,7.3,0
			c3.7-3.8,20.8-21.3,20.8-21.3s5.9-7.5,1.2-13.5c-3.8-4.6-19.3-19.6-19.3-19.6s-6.5-4.4-13.5,2L29.3,49.7z"/>
	</g>
	<text transform="matrix(1 0 0 1 99.9835 39.6627)" class="st2 st3 st4">Fazeelat</text>
	<text transform="matrix(1 0 0 1 99.9835 80.1627)" class="st2 st3 st4">Suleman</text>
</g>
</svg>
