<svg version="1.2" xmlns="http://www.w3.org/2000/svg" viewBox="0 0 79 85" width="79" height="85"><style>tspan{white-space:pre}.a{fill:#fff}</style><path class="a" d="m42.8 1.8c2.7 2.8-0.5 6.2-0.5 6.2 0 0-30 29.9-29.9 29.8-4.5 2.9-2.4 7.7-2.4 7.7 0 0 8 8.3 11.9 12.3 4 4 8.7-0.1 8.7-0.1 0 0 16.3-15.9 18.5-18.5 4.9-3.9 6.9-0.2 6.9-0.2 2.2 3 0 6 0 6 0 0-14 13.9-18.8 18.5-4 4.4-0.8 8.3-0.8 8.3 0 0 5.2 5.4 5.6 5.8 3.1 3.9 0.6 5.9 0.4 6-3 3.1-6.6-0.6-6.6-0.6 0 0-30.9-31.4-33.9-34.6-5.7-7.3 2.4-15 2.4-15l33.1-33c4.1-0.9 5.4 1.3 5.4 1.4z"/><path class="a" d="m44.1 18.8c7-6.4 13.5-2 13.5-2 0 0 15.5 15 19.3 19.6 4.7 6-1.2 13.5-1.2 13.5 0 0-17.1 17.5-20.8 21.3-4.1 4.3-6.9 0.1-7.3 0-2.7-3 1.2-6.5 1.2-6.5 0 0 15.9-15.8 18.8-19 3.8-3.6 0-7.6 0-7.6 0 0-7.7-7.2-11.4-10.9-3.7-3.7-7.9 0-7.9 0 0 0-13.7 13.8-17.9 18.3-3.8 4.6-7.7 0.9-7.7 0.9-2.8-2.6 0.6-6.7 0.6-6.7z"/></svg>